<svg xmlns="http://www.w3.org/2000/svg" version="1.1" xmlns:xlink="http://www.w3.org/1999/xlink" xmlns:svgjs="http://svgjs.com/svgjs" width="1980" height="1080" preserveAspectRatio="none" viewBox="0 0 1980 1080"><g mask="url(&quot;#SvgjsMask1542&quot;)" fill="none"><rect width="1980" height="1080" x="0" y="0" fill="#0e2a47"></rect><use xlink:href="#SvgjsG1558" transform="translate(0, 0)" fill="#0f457b"></use><use xlink:href="#SvgjsG1558" transform="translate(0, 561)" fill="#0f457b"></use><use xlink:href="#SvgjsG1558" transform="translate(561, 0)" fill="#0f457b"></use><use xlink:href="#SvgjsG1558" transform="translate(561, 561)" fill="#0f457b"></use><use xlink:href="#SvgjsG1558" transform="translate(1122, 0)" fill="#0f457b"></use><use xlink:href="#SvgjsG1558" transform="translate(1122, 561)" fill="#0f457b"></use><use xlink:href="#SvgjsG1558" transform="translate(1683, 0)" fill="#0f457b"></use><use xlink:href="#SvgjsG1558" transform="translate(1683, 561)" fill="#0f457b"></use></g><defs><mask id="SvgjsMask1542"><rect width="1980" height="1080" fill="#ffffff"></rect></mask><g id="SvgjsG1555"><path d="M6.498 9.304L12.139 3.663l1.565 1.566-5.641 5.641z"></path><path d="M6.8 0.457h2.541v8.028H6.8z"></path><path d="M8.072 10.876L2.429 5.238l1.563-1.566L9.636 9.313zM1.2 13.277h13.733v2.266H1.2z"></path><path d="M0.733 9.143h2.267v6.4h-2.267z m12.267 0h2.267v6.4h-2.267z"></path></g><g id="SvgjsG1553"><path d="M3.474 10.969C3.474 7.665 8.077 0.361 8.077 0.361s4.602 7.305 4.602 10.608c0 2.247-1.506 4.771-4.602 4.771-3.095 0-4.603-2.524-4.603-4.771z" fill-rule="evenodd"></path></g><g id="SvgjsG1551"><path d="M7.713 15.485C3.459 15.485 0 12.025 0 7.768 0 3.513 3.459 0.051 7.713 0.051S15.432 3.513 15.432 7.768c0 4.257-3.465 7.716-7.719 7.717z m0-1.91c3.201 0 5.81-2.604 5.81-5.809 0-3.199-2.61-5.807-5.81-5.807-3.202 0-5.804 2.609-5.804 5.807-0.001 3.206 2.602 5.809 5.804 5.809z"></path><path d="M7.753 8.787a0.574 0.574 0 0 1-0.554-0.042 0.578 0.578 0 0 1-0.259-0.399L6.931 3.862a0.58 0.58 0 0 1 1.162 0v3.478l2.975-1.4a0.578 0.578 0 0 1 0.773 0.275c0.138 0.292 0.011 0.637-0.276 0.774l-3.81 1.798z"></path></g><g id="SvgjsG1543"><path d="M11.986 8.245a46.749 46.749 0 0 1-0.521-0.411c-0.146-0.116-0.293-0.233-0.44-0.348-0.88-0.688-1.797-1.316-2.816-1.407A2.815 2.815 0 0 0 7.954 6.067c-0.086 0-0.171 0.011-0.255 0.018-1.022 0.093-1.942 0.717-2.826 1.408l0.093 0.073c0.108 0.085 0.213 0.168 0.32 0.252C6.165 7.137 7.021 6.576 7.954 6.576c0.93 0 1.784 0.558 2.66 1.236a35.098 35.098 0 0 1 0.535 0.421c0.142 0.113 0.283 0.226 0.426 0.338C12.532 9.32 13.531 10 14.658 10c0.437 0 0.854-0.104 1.257-0.273v-0.557c-0.409 0.197-0.825 0.32-1.257 0.32-0.934 0-1.792-0.563-2.672-1.245z"></path><path d="M11.574 7.496c0.029 0.023 0.059 0.046 0.088 0.07 0.109 0.087 0.216 0.17 0.325 0.256 0.318-0.246 0.635-0.476 0.952-0.67v1.37c0.17 0.111 0.34 0.214 0.51 0.301V6.878c0.315-0.147 0.634-0.248 0.96-0.283v2.537c0.078 0.01 0.157 0.018 0.237 0.018 0.091 0 0.183-0.009 0.273-0.021V6.592c0.34 0.037 0.67 0.144 0.996 0.3V6.336C15.514 6.17 15.099 6.067 14.664 6.067c-1.128 0-2.13 0.68-3.09 1.429z m-7.248 1.08c-0.034-0.027-0.068-0.053-0.102-0.08-0.104-0.083-0.207-0.162-0.31-0.245-0.877 0.678-1.733 1.238-2.665 1.238C0.82 9.49 0.407 9.36 0 9.152v0.562C0.401 9.891 0.815 10 1.249 10c1.124 0 2.122-0.677 3.077-1.423z"></path><path d="M0.989 9.133c0.084 0.011 0.17 0.019 0.254 0.02 0.086 0 0.171-0.008 0.256-0.02V6.592c0.329 0.035 0.65 0.136 0.967 0.285-0.002 0.012-0.007 0.023-0.007 0.036v1.903a5.818 5.818 0 0 0 0.51-0.303V7.152c0.487 0.3 0.971 0.684 1.467 1.08C5.525 9.101 6.652 10 7.948 10c1.123 0 2.121-0.675 3.078-1.42l-0.106-0.084c-0.103-0.082-0.205-0.161-0.306-0.242-0.313 0.242-0.622 0.466-0.934 0.658V7.564A5.816 5.816 0 0 0 9.17 7.261v1.893c0 0.01 0.004 0.019 0.005 0.029-0.316 0.149-0.637 0.252-0.965 0.288V6.937a1.97 1.97 0 0 0-0.267-0.02c-0.082 0-0.163 0.008-0.243 0.017v2.541c-0.33-0.035-0.652-0.136-0.969-0.283 0.002-0.013 0.006-0.024 0.006-0.039V7.248a5.629 5.629 0 0 0-0.51 0.302v1.368c-0.49-0.299-0.976-0.686-1.474-1.083C3.666 6.966 2.539 6.067 1.243 6.067c-0.432 0-0.844 0.096-1.243 0.251v0.55c0.324-0.144 0.652-0.244 0.989-0.278V9.133z"></path></g><g id="SvgjsG1547"><path d="M2.524 8.637H0.014V7.308h2.51v1.329zM3.656 4.576L1.884 2.804l0.935-0.935 1.772 1.772-0.935 0.935z m0 6.817l0.935 0.935-1.772 1.773-0.934-0.936 1.771-1.772z m4.997-8.884h-1.33V-0.002h1.33v2.511z m-1.33 10.952h1.33v2.51h-1.33v-2.509zM12.344 4.576l-0.96-0.935 1.796-1.772 0.935 0.935-1.772 1.772z m0 6.792l1.771 1.797-0.935 0.936-1.771-1.774 0.936-0.96z m3.643-4.06v1.329h-2.51V7.308h2.509z"></path><path d="M3.702 7.984a4.184 4.184 0 1 0 8.368 0 4.184 4.184 0 1 0-8.368 0"></path></g><g id="SvgjsG1549"><path d="M15.233 9.431c0.295 0 0.569-0.239 0.61-0.532 0 0 0.056-0.411 0.056-0.899s-0.056-0.899-0.056-0.899c-0.041-0.292-0.315-0.531-0.61-0.53h-1.524c-0.295 0-0.602-0.188-0.681-0.418s-0.188-0.967 0.021-1.176l1.078-1.077c0.209-0.209 0.225-0.565 0.036-0.792l-1.268-1.268c-0.227-0.189-0.583-0.173-0.792 0.036l-1.078 1.077c-0.208 0.209-0.556 0.293-0.772 0.187s-0.822-0.552-0.821-0.847V0.767c0-0.295-0.239-0.569-0.531-0.61 0 0-0.411-0.057-0.9-0.056s-0.899 0.057-0.899 0.056c-0.293 0.04-0.532 0.315-0.532 0.61v1.524c0 0.295-0.188 0.601-0.418 0.681s-0.967 0.188-1.176-0.021l-1.078-1.078C3.689 1.665 3.333 1.649 3.107 1.837l-1.268 1.268c-0.189 0.227-0.173 0.583 0.036 0.792l1.077 1.078c0.209 0.209 0.293 0.556 0.187 0.772s-0.552 0.822-0.847 0.822H0.767c-0.295 0-0.569 0.239-0.61 0.531 0 0-0.057 0.411-0.056 0.899s0.057 0.899 0.056 0.9c0.04 0.293 0.315 0.532 0.61 0.532h1.525c0.295 0 0.601 0.188 0.681 0.417 0.079 0.23 0.188 0.967-0.02 1.176l-1.078 1.077C1.667 12.311 1.651 12.667 1.84 12.893l1.267 1.268c0.227 0.189 0.583 0.173 0.792-0.036l1.077-1.077c0.209-0.208 0.556-0.292 0.772-0.187s0.821 0.553 0.822 0.848v1.524c0 0.295 0.239 0.569 0.532 0.61 0 0 0.411 0.057 0.899 0.057s0.899-0.056 0.899-0.057c0.293-0.04 0.531-0.315 0.532-0.609v-1.524c0-0.295 0.188-0.602 0.418-0.681 0.23-0.079 0.967-0.188 1.176 0.021l1.077 1.077c0.209 0.209 0.565 0.225 0.792 0.036l1.268-1.267c0.189-0.227 0.173-0.583-0.036-0.792l-1.078-1.077c-0.209-0.209-0.293-0.557-0.186-0.773 0.106-0.216 0.552-0.822 0.847-0.822h1.525zM8 10.892c-1.597 0-2.891-1.294-2.891-2.892 0-1.596 1.295-2.891 2.891-2.891S10.892 6.404 10.892 8 9.597 10.892 8 10.892z"></path></g><g id="SvgjsG1550"><path d="M6.041 12.752H4.028v-5.742h2.013v5.742z m4.878-5.742h2.014v5.742H10.919v-5.742z m-3.559 0H9.6v5.742H7.36v-5.742z m-5.271 5.742L1.244 14.144l14.525-0.025-0.791-1.369h-0.729v-5.742h1.422V5.008H14.596L8.596 2.974l-6.116 2.034h-1.102v2h1.333v5.742h-0.622z" fill-rule="evenodd"></path></g><g id="SvgjsG1544"><path d="M8.541 10.856h1.001v1H8.541zM8.243 14.859H10.041v-2.002h-2.001v2.002h0.201z"></path><path d="M14.225 9.282V3.277l-2.788 1.716v2.573h-1.067V4.125h-1.293V1.132h-3.432v4.899h-1.716v-1.682L2.536 3.492 1.142 4.349v3.003H0.07v7.507h3.216V9.103a1.501 1.501 0 0 1 3.004 0v1.184l-1.131 2.874h0.702v1.698h0.429v-2.127h-0.501l0.844-2.146 2.408-0.982 2.409 0.982 0.845 2.146h-0.501v2.127h0.846l2.872-0.001V9.282h-1.287z"></path></g><g id="SvgjsG1556"><path d="M1.623 15.305h14.538v-1.51H3.132V7.458l13.029-5.888V0L0 7.3v1.57l1.623-0.728z"></path><path d="M12.543 7.051v0.811h-1.331l0.789 1.933h1.991v0.805H12.325l0.922 2.261h-0.975l-0.923-2.261H8.366l-0.916 2.261h-0.98l0.923-2.261H5.728v-0.805h1.993l0.785-1.933h-1.332v-0.811h5.369z m-1.521 2.744L10.237 7.862h-0.753l-0.788 1.933h2.325z"></path></g><g id="SvgjsG1554"><path d="M5.741 11.464a1.129 1.129 0 0 0 1.129-1.128 1.129 1.129 0 0 0-2.258 0 1.129 1.129 0 0 0 1.129 1.128z m9.513-1.61a0.897 0.897 0 0 1 0.899 0.89l0.004 2.371H9.149V9.854h6.105z"></path><path d="M1.623 15.405h14.538V13.896H3.132V8.18L16.161 2.293V0.727L0 8.022v1.57l1.623-0.728z"></path><path d="M7.424 12.003h-2.025a0.558 0.558 0 0 0-0.556 0.558c0 0.304 0.249 0.554 0.556 0.554h2.578a0.557 0.557 0 0 0 0.556-0.554V10.327a0.555 0.555 0 0 0-1.111 0l0.002 1.676z"></path></g><g id="SvgjsG1548"><path d="M1.21 12.396C0.087 12.396 0 11.186 0 11.186V3.6h14.879S16 3.548 16 4.58c0 1.085-0.969 1.026-0.969 1.026H11.059a1.374 1.374 0 0 0-0.316-0.077L7.494 5.118l-3.592-1.035a0.216 0.216 0 0 0-0.268 0.147c-0.033 0.115 0.032 0.24 0.147 0.274l3.664 1.056a0.978 0.978 0 0 1 0.588 0.47 0.972 0.972 0 0 1 0.084 0.746 0.975 0.975 0 0 1-0.47 0.589 0.976 0.976 0 0 1-0.743 0.086c-0.002 0-0.003 0-0.005 0l-1.542-0.447c-0.8-0.251-1.395 0.001-2.026 0.267-0.486 0.206-0.989 0.417-1.672 0.463a3.776 3.776 0 0 1-0.274 0.01 0.215 0.215 0 0 0-0.218 0.213c-0.002 0.12 0.098 0.224 0.219 0.224 0.916 0 1.554-0.27 2.117-0.508 0.602-0.254 1.078-0.456 1.729-0.251 0.002 0 0.136 0.04 0.324 0.093-0.432 0.199-0.755 0.608-0.819 1.113-0.073 0.579 0.215 1.122 0.687 1.402a1.286 1.286 0 0 0-0.556 0.905c-0.089 0.704 0.413 1.391 1.117 1.459H1.21z"></path><path d="M12.965 11.475h1.968v-0.495H12.965v0.495z m0.738-2.902v0.728h-0.738v0.495h0.738v0.72h0.494v-0.72h0.736v-0.495h-0.736v-0.728H13.702z m0.247 3.886c-1.207 0-1.795-0.985-1.795-1.861 0-1.288 1.795-4.137 1.795-4.137s1.795 2.85 1.795 4.138c0 0.877-0.587 1.861-1.795 1.86M11.542 7.062c-0.068 0.538-0.561 0.922-1.1 0.853l-2.382-0.3a1.404 1.404 0 0 0 0.48-0.718 1.407 1.407 0 0 0-0.222-1.233l2.37 0.299a0.985 0.985 0 0 1 0.854 1.099M10.39 9.341a0.98 0.98 0 0 1-0.373 0.654 0.977 0.977 0 0 1-0.726 0.199L6.026 9.782a0.984 0.984 0 0 1-0.853-1.099 0.976 0.976 0 0 1 0.373-0.654 0.976 0.976 0 0 1 0.727-0.2l3.264 0.413a0.985 0.985 0 0 1 0.853 1.099M8.868 11.44a0.853 0.853 0 0 1-0.952 0.738l-1.875-0.237a0.852 0.852 0 0 1-0.737-0.951 0.852 0.852 0 0 1 0.951-0.737l1.874 0.237a0.852 0.852 0 0 1 0.745 0.843c0 0.037-0.001 0.072-0.006 0.107"></path></g><g id="SvgjsG1546"><path d="M7.717 12.464a0.453 0.453 0 0 0-0.64 0L4.945 14.594l-0.265-0.265 2.859-2.855a0.453 0.453 0 1 0-0.641-0.64L4.04 13.69l-0.265-0.266 3.325-3.322a0.453 0.453 0 0 0 0.001-0.641 0.452 0.452 0 0 0-0.64 0L3.135 12.783l-0.265-0.265L5.48 9.91a0.453 0.453 0 0 0 0-0.64 0.452 0.452 0 0 0-0.64 0L1.482 12.621c-0.002-0.324-0.005-0.908-0.005-1.435 0-0.732-0.925-0.84-0.971-0.79C0.461 10.45 0 15.533 0 15.533h5.294l0.294-0.295-0.003-0.003 2.132-2.131a0.453 0.453 0 0 0 0-0.642z"></path><path d="M10.099 0C7.423 0 4.956 2.008 4.443 4.219c-0.115 0.493-0.244 1.777-0.244 1.777l-1.23 3.1c-0.024 0.057-0.037 0.119-0.037 0.185a0.475 0.475 0 0 0 0.475 0.475h0.42l0.75-0.75a0.826 0.826 0 0 1 1.167 0.001 0.826 0.826 0 0 1 0.226 0.42l0.23-0.229a0.824 0.824 0 0 1 1.166 0c0.316 0.316 0.32 0.823 0.016 1.147a0.825 0.825 0 0 1 0.422 1.392l-0.24 0.239a0.818 0.818 0 0 1 0.418 0.224 0.826 0.826 0 0 1 0 1.166l-0.531 0.532v1.635H13.747V10.529C15.117 9.451 16 7.776 16 5.896 16 2.639 13.36 0 10.099 0z m-4.448 7.173a0.658 0.658 0 0 1 0-1.316 0.658 0.658 0 0 1 0.658 0.659 0.658 0.658 0 0 1-0.658 0.658z m3.08 1.534c0.164 0 0.3 0.135 0.3 0.298a0.301 0.301 0 0 1-0.3 0.3 0.3 0.3 0 0 1-0.3-0.3c0-0.164 0.134-0.299 0.3-0.298zM8.552 10.579a0.3 0.3 0 0 1 0-0.6 0.301 0.301 0 0 1 0.3 0.301 0.3 0.3 0 0 1-0.3 0.299z m0.64 1.289a0.45 0.45 0 0 1-0.412-0.486 0.45 0.45 0 0 1 0.487-0.408 0.448 0.448 0 0 1 0.408 0.485c-0.022 0.248-0.238 0.432-0.483 0.409z m0.432-1.795c-0.251 0-0.45-0.201-0.45-0.449s0.199-0.446 0.45-0.446c0.246 0 0.446 0.2 0.446 0.448s-0.2 0.448-0.446 0.448z m0.637 0.939a0.3 0.3 0 0 1-0.303-0.3 0.301 0.301 0 0 1 0.301-0.298 0.299 0.299 0 0 1 0 0.598z m0.668-1.741h-0.105V8.736l0.103-0.001c0.668-0.001 1.212-0.545 1.215-1.212-0.002-0.667-0.547-1.211-1.214-1.213l-0.104-0.001V5.776h0.105c0.965 0 1.749 0.783 1.748 1.747s-0.784 1.747-1.748 1.747z"></path></g><g id="SvgjsG1552"><path d="M13.856 7.297c1.344 0 2.144 0.801 2.144 2.027v5.74c0 0.444-0.04 0.805-0.04 0.804H9.822V10.29h-0.25l-1.139 1.7c-0.186 0.253-0.562 0.376-0.863 0.375H4.896a0.804 0.804 0 0 1-0.805-0.804c0-0.443 0.36-0.793 0.805-0.793h2.432L9.016 8.216c0.405-0.617 1.155-0.911 1.832-0.911 0 1.795 0.448 2.554 1.256 2.554v2.983a0.64 0.64 0 0 0-0.387 0.588 0.632 0.632 0 0 0 0.634 0.635c0.353 0 0.636-0.291 0.636-0.644 0-0.264-0.16-0.49-0.387-0.588V9.85c0.808 0 1.256-0.759 1.256-2.554"></path><path d="M13.352 7.297c-0.014 1.84-0.332 2.082-1 2.082-0.667 0-0.986-0.242-1-2.082h2z m-1.012-4.144c1.014 0 1.836 0.822 1.836 1.837 0 1.013-0.822 1.836-1.837 1.835-1.014 0-1.837-0.822-1.837-1.836S11.325 3.152 12.339 3.152m-4.512 0.251c0.224 0 0.406-0.182 0.407-0.406s-0.182-0.406-0.407-0.407a0.406 0.406 0 0 0 0 0.814M4.922 1.163a0.579 0.579 0 0 0 0.579-0.579c0-0.32-0.259-0.58-0.579-0.58a0.58 0.58 0 0 0-0.58 0.58c0 0.32 0.259 0.579 0.58 0.579m-3.146 0.004c0.325 0 0.589-0.261 0.589-0.584 0-0.322-0.264-0.583-0.589-0.583C1.452 0 1.189 0.261 1.189 0.583c0 0.322 0.263 0.584 0.588 0.584"></path><path d="M7.276 6.914a0.24 0.24 0 0 0 0.241 0.238c0.131 0 0.237-0.107 0.236-0.238v-1.427h0.187v1.426c0 0.131 0.107 0.238 0.238 0.239s0.24-0.107 0.24-0.239V4.246h0.184v0.904a0.178 0.178 0 0 0 0.178 0.178 0.176 0.176 0 0 0 0.176-0.178v-1.027c0-0.288-0.253-0.522-0.54-0.522 0 0-1.103 0.001-1.108 0.002l-0.357-0.035-0.459-1.598c-0.185-0.645-0.725-0.624-0.724-0.625h-1.487s-0.54-0.021-0.725 0.625l-0.24 0.837-0.24-0.837c-0.185-0.645-0.725-0.624-0.725-0.624h-1.15s-0.54-0.021-0.725 0.624L0.013 3.584c-0.045 0.15 0.029 0.291 0.161 0.329 0.132 0.037 0.276-0.054 0.311-0.174l0.45-1.573h0.22l-0.658 2.723H1.078v1.934a0.288 0.288 0 0 0 0.288 0.289c0.16 0 0.29-0.129 0.29-0.289v-1.935h0.245v1.935a0.289 0.289 0 0 0 0.578 0v-1.935h0.572L2.398 2.166h0.22l0.45 1.573c0.03 0.104 0.126 0.189 0.24 0.179 0.113 0.01 0.229-0.075 0.258-0.179l0.45-1.573h0.203v4.601a0.341 0.341 0 0 0 0.342 0.339c0.187 0 0.34-0.152 0.34-0.339V4.149h0.251v2.618a0.341 0.341 0 0 0 0.682 0V2.166h0.22l0.418 1.52c0.026 0.092 0.121 0.18 0.222 0.211l0.584 0.163V6.914z"></path></g><g id="SvgjsG1557"><path d="M8.564 1.79a0.892 0.892 0 0 0 0.892-0.892A0.892 0.892 0 0 0 8.564 0.006a0.892 0.892 0 0 0 0 1.784z m-4.837 0.006c-0.5 0-0.904-0.402-0.904-0.899C2.824 0.402 3.227 0 3.728 0c0.5 0 0.905 0.402 0.905 0.898s-0.405 0.898-0.905 0.897z"></path><path d="M12.368 4.611a0.625 0.625 0 1 0 1.251 0 0.625 0.625 0 1 0-1.251 0"></path><path d="M13.9 5.546H12.212c-0.008 0-0.564-0.051-0.564-0.051l-0.707-2.464C10.656 2.04 9.824 2.07 9.824 2.07H7.538s-0.83-0.03-1.116 0.961l-0.348 1.213-0.348-1.213c-0.286-0.991-1.115-0.961-1.116-0.961h-1.769s-0.831-0.03-1.115 0.961L1.013 5.514c-0.068 0.232 0.059 0.409 0.262 0.467 0.203 0.058 0.41-0.044 0.463-0.229l0.693-2.42 0.339 0-1.013 4.189h0.895v2.975a0.443 0.443 0 0 0 0.443 0.445 0.446 0.446 0 0 0 0.446-0.445V7.521h0.376v2.975a0.444 0.444 0 0 0 0.443 0.445 0.445 0.445 0 0 0 0.445-0.445V7.52h0.88l-1.002-4.189 0.337 0.001 0.685 2.394c0.011 0.041 0.03 0.078 0.053 0.111 0.067 0.101 0.185 0.158 0.316 0.153 0.13 0.004 0.247-0.052 0.314-0.152a0.325 0.325 0 0 0 0.058-0.123l0.682-2.382 0.312-0.001v7.079a0.525 0.525 0 0 0 0.526 0.523 0.523 0.523 0 0 0 0.523-0.523v-4.028h0.387v4.028a0.523 0.523 0 0 0 0.522 0.523c0.29 0 0.526-0.234 0.526-0.523v-7.079l0.339 0.001 0.664 2.419c0.035 0.12 0.136 0.198 0.254 0.228 0.005 0.001 0.008 0.005 0.013 0.005 0.106 0.024 0.593 0.162 0.952 0.265v4.39a0.368 0.368 0 0 0 0.736 0v-2.194h0.287v2.193c0 0.203 0.164 0.368 0.367 0.368s0.369-0.165 0.369-0.368v-4.1h0.283v1.39c0 0.151 0.123 0.275 0.273 0.275 0.151 0 0.27-0.124 0.271-0.275V6.347c0-0.442-0.389-0.802-0.832-0.801z m-1.914 8.699a46.749 46.749 0 0 1-0.521-0.411c-0.146-0.116-0.293-0.233-0.44-0.348-0.882-0.688-1.798-1.316-2.817-1.407a2.815 2.815 0 0 0-0.255-0.012c-0.086 0-0.171 0.011-0.255 0.018-1.022 0.093-1.942 0.717-2.826 1.408l0.093 0.073c0.108 0.085 0.213 0.168 0.32 0.252 0.878-0.681 1.734-1.242 2.668-1.242 0.93 0 1.784 0.558 2.66 1.236a35.098 35.098 0 0 1 0.533 0.421c0.141 0.113 0.283 0.226 0.426 0.338C12.531 15.32 13.53 16 14.658 16c0.437 0 0.854-0.104 1.256-0.273v-0.557c-0.409 0.197-0.825 0.32-1.257 0.32-0.934 0-1.792-0.563-2.672-1.245z"></path><path d="M11.574 13.496c0.029 0.023 0.059 0.046 0.088 0.07 0.109 0.087 0.216 0.17 0.325 0.256 0.318-0.246 0.635-0.476 0.952-0.67v1.37c0.17 0.111 0.34 0.214 0.51 0.301V12.878c0.315-0.147 0.634-0.248 0.96-0.283v2.537c0.078 0.01 0.157 0.018 0.237 0.018 0.091 0 0.183-0.009 0.273-0.021v-2.537c0.34 0.037 0.67 0.144 0.996 0.3v-0.555c-0.401-0.167-0.816-0.27-1.251-0.27-1.128 0-2.13 0.68-3.09 1.429z m-7.248 1.08c-0.034-0.027-0.068-0.053-0.102-0.08-0.104-0.083-0.207-0.162-0.31-0.245-0.877 0.678-1.733 1.238-2.665 1.238C0.82 15.49 0.407 15.36 0 15.152v0.562C0.401 15.891 0.815 16 1.249 16c1.124 0 2.122-0.677 3.077-1.423z"></path><path d="M0.989 15.133c0.084 0.011 0.17 0.019 0.254 0.02 0.086 0 0.171-0.008 0.256-0.02V12.592c0.329 0.035 0.65 0.136 0.967 0.285-0.002 0.012-0.007 0.023-0.007 0.036v1.903a5.818 5.818 0 0 0 0.51-0.303V13.152c0.487 0.3 0.971 0.684 1.467 1.08C5.525 15.101 6.652 16 7.948 16c1.123 0 2.121-0.675 3.078-1.42l-0.106-0.084c-0.103-0.082-0.205-0.161-0.306-0.242-0.313 0.242-0.622 0.466-0.934 0.658v-1.348a5.816 5.816 0 0 0-0.511-0.303v1.894c0 0.011 0.003 0.019 0.005 0.03-0.317 0.149-0.637 0.251-0.966 0.288V12.938a1.97 1.97 0 0 0-0.267-0.021c-0.082 0-0.163 0.008-0.243 0.018V15.475c-0.33-0.035-0.652-0.135-0.969-0.283 0.002-0.013 0.007-0.024 0.007-0.038v-1.905a5.549 5.549 0 0 0-0.51 0.301v1.368c-0.49-0.3-0.976-0.686-1.474-1.084-1.089-0.869-2.214-1.768-3.51-1.767-0.432 0-0.844 0.096-1.244 0.251v0.55c0.324-0.144 0.652-0.244 0.989-0.277v2.542z"></path></g><g id="SvgjsG1545"><path d="M2.115 12.192a1.05 1.05 0 1 1 0-2.1 1.05 1.05 0 0 1 0 2.1zM0 16V13.942c0-0.742 0.61-1.344 1.352-1.344h1.45c0.743 0 1.406 0.603 1.406 1.345V16H0z m13-3.897a1.051 1.051 0 0 0 1.05-1.05 1.05 1.05 0 0 0-2.099 0 1.05 1.05 0 0 0 1.051 1.049zM15.114 16V13.942c0-0.742-0.61-1.344-1.353-1.344h-1.448c-0.744 0-1.406 0.603-1.407 1.345V16h4.208z"></path><path d="M6.494 11.133a1.062 1.053 0 1 0 2.124 0 1.062 1.053 0 1 0-2.124 0"></path><path d="M4.998 16l0.836-2.277c0.335-1.163 1.31-1.128 1.309-1.127h0.828s0.974-0.036 1.309 1.127L10.116 16h-5.118z m2.558-7.25v-2.491l-0.414-0.414v2.49H0.885V0.414h6.257V4.483l0.414 0.414V0H0.474v8.75z"></path><path d="M3.953 2.116a0.558 0.558 0 0 0 0.558-0.558 0.558 0.558 0 0 0-0.558-0.558 0.558 0.558 0 0 0-0.558 0.558 0.558 0.558 0 0 0 0.559 0.558z m1.843 2.321l-0.458-1.557c-0.182-0.605-0.693-0.587-0.694-0.588H3.262s-0.511-0.018-0.693 0.588l-0.458 1.556a0.238 0.238 0 0 0 0.457 0.135l0.437-1.489v0l0.195 0V4.776l-0.77 2.642a0.326 0.326 0 0 0 0.313 0.418c0.142 0 0.272-0.092 0.314-0.235l0.76-2.608h0.27l0.76 2.608a0.326 0.326 0 0 0 0.405 0.222 0.327 0.327 0 0 0 0.221-0.405l-0.769-2.64v-1.696l0.194 0.001 0.001 0 0.437 1.489a0.238 0.238 0 0 0 0.457-0.135z m7.2-0.235a1.049 1.049 0 0 1-1.048-1.048c0-0.579 0.47-1.049 1.048-1.049a1.047 1.047 0 0 1 1.047 1.048 1.046 1.046 0 0 1-1.048 1.048z m0 1.559s0.254 0.033 0.409-0.183c0.141-0.197 0.151-0.85 0.153-0.968H12.432c-0.004 0.47 0.051 0.812 0.163 0.985 0.114 0.176 0.4 0.166 0.401 0.166z"></path><path d="M8.428 6.685c-0.038 0.063-0.099 0.192-0.099 0.274a0.441 0.441 0 0 0 0.442 0.441h1.454c0.165 0 0.382-0.066 0.474-0.205 0.314-0.464 0.643-0.952 0.741-1.099v2.749h3.661V6.026c0-0.737-0.576-1.4-1.256-1.401 0.002 0.346-0.044 0.92-0.247 1.172-0.211 0.257-0.461 0.235-0.461 0.235v1.072a0.365 0.365 0 0 1-0.139 0.703 0.365 0.365 0 0 1-0.365-0.366 0.365 0.365 0 0 1 0.224-0.337v-1.077s-0.218 0.018-0.423-0.188c-0.274-0.286-0.284-1.096-0.284-1.228h-0.066a1.343 1.343 0 0 0-1.119 0.598l-0.871 1.313-1.32-0.001L6.907 4.656a0.179 0.179 0 0 0-0.254 0 0.18 0.18 0 0 0 0 0.254l1.774 1.775z"></path></g><g id="SvgjsG1558"><use xlink:href="#SvgjsG1543" transform="translate(0, 0) scale(1.7)" fill="#0f457b"></use><use xlink:href="#SvgjsG1544" transform="translate(0, 56.1) scale(1.7)" fill="#0f457b"></use><use xlink:href="#SvgjsG1545" transform="translate(0, 112.2) scale(1.7)" fill="#0f457b"></use><use xlink:href="#SvgjsG1544" transform="translate(0, 168.3) scale(1.7)" fill="#0f457b"></use><use xlink:href="#SvgjsG1546" transform="translate(0, 224.4) scale(1.7)" fill="#0f457b"></use><use xlink:href="#SvgjsG1546" transform="translate(0, 280.5) scale(1.7)" fill="#0f457b"></use><use xlink:href="#SvgjsG1546" transform="translate(0, 336.6) scale(1.7)" fill="#0f457b"></use><use xlink:href="#SvgjsG1544" transform="translate(0, 392.7) scale(1.7)" fill="#0f457b"></use><use xlink:href="#SvgjsG1547" transform="translate(0, 448.8) scale(1.7)" fill="#0f457b"></use><use xlink:href="#SvgjsG1543" transform="translate(0, 504.90000000000003) scale(1.7)" fill="#0f457b"></use><use xlink:href="#SvgjsG1548" transform="translate(56.1, 0) scale(1.7)" fill="#0f457b"></use><use xlink:href="#SvgjsG1549" transform="translate(56.1, 56.1) scale(1.7)" fill="#0f457b"></use><use xlink:href="#SvgjsG1550" transform="translate(56.1, 112.2) scale(1.7)" fill="#0f457b"></use><use xlink:href="#SvgjsG1548" transform="translate(56.1, 168.3) scale(1.7)" fill="#0f457b"></use><use xlink:href="#SvgjsG1548" transform="translate(56.1, 224.4) scale(1.7)" fill="#0f457b"></use><use xlink:href="#SvgjsG1551" transform="translate(56.1, 280.5) scale(1.7)" fill="#0f457b"></use><use xlink:href="#SvgjsG1546" transform="translate(56.1, 336.6) scale(1.7)" fill="#0f457b"></use><use xlink:href="#SvgjsG1548" transform="translate(56.1, 392.7) scale(1.7)" fill="#0f457b"></use><use xlink:href="#SvgjsG1552" transform="translate(56.1, 448.8) scale(1.7)" fill="#0f457b"></use><use xlink:href="#SvgjsG1552" transform="translate(56.1, 504.90000000000003) scale(1.7)" fill="#0f457b"></use><use xlink:href="#SvgjsG1553" transform="translate(112.2, 0) scale(1.7)" fill="#0f457b"></use><use xlink:href="#SvgjsG1554" transform="translate(112.2, 56.1) scale(1.7)" fill="#0f457b"></use><use xlink:href="#SvgjsG1550" transform="translate(112.2, 112.2) scale(1.7)" fill="#0f457b"></use><use xlink:href="#SvgjsG1554" transform="translate(112.2, 168.3) scale(1.7)" fill="#0f457b"></use><use xlink:href="#SvgjsG1545" transform="translate(112.2, 224.4) scale(1.7)" fill="#0f457b"></use><use xlink:href="#SvgjsG1549" transform="translate(112.2, 280.5) scale(1.7)" fill="#0f457b"></use><use xlink:href="#SvgjsG1546" transform="translate(112.2, 336.6) scale(1.7)" fill="#0f457b"></use><use xlink:href="#SvgjsG1544" transform="translate(112.2, 392.7) scale(1.7)" fill="#0f457b"></use><use xlink:href="#SvgjsG1552" transform="translate(112.2, 448.8) scale(1.7)" fill="#0f457b"></use><use xlink:href="#SvgjsG1545" transform="translate(112.2, 504.90000000000003) scale(1.7)" fill="#0f457b"></use><use xlink:href="#SvgjsG1554" transform="translate(168.3, 0) scale(1.7)" fill="#0f457b"></use><use xlink:href="#SvgjsG1555" transform="translate(168.3, 56.1) scale(1.7)" fill="#0f457b"></use><use xlink:href="#SvgjsG1555" transform="translate(168.3, 112.2) scale(1.7)" fill="#0f457b"></use><use xlink:href="#SvgjsG1543" transform="translate(168.3, 168.3) scale(1.7)" fill="#0f457b"></use><use xlink:href="#SvgjsG1555" transform="translate(168.3, 224.4) scale(1.7)" fill="#0f457b"></use><use xlink:href="#SvgjsG1544" transform="translate(168.3, 280.5) scale(1.7)" fill="#0f457b"></use><use xlink:href="#SvgjsG1546" transform="translate(168.3, 336.6) scale(1.7)" fill="#0f457b"></use><use xlink:href="#SvgjsG1553" transform="translate(168.3, 392.7) scale(1.7)" fill="#0f457b"></use><use xlink:href="#SvgjsG1543" transform="translate(168.3, 448.8) scale(1.7)" fill="#0f457b"></use><use xlink:href="#SvgjsG1556" transform="translate(168.3, 504.90000000000003) scale(1.7)" fill="#0f457b"></use><use xlink:href="#SvgjsG1545" transform="translate(224.4, 0) scale(1.7)" fill="#0f457b"></use><use xlink:href="#SvgjsG1543" transform="translate(224.4, 56.1) scale(1.7)" fill="#0f457b"></use><use xlink:href="#SvgjsG1556" transform="translate(224.4, 112.2) scale(1.7)" fill="#0f457b"></use><use xlink:href="#SvgjsG1555" transform="translate(224.4, 168.3) scale(1.7)" fill="#0f457b"></use><use xlink:href="#SvgjsG1545" transform="translate(224.4, 224.4) scale(1.7)" fill="#0f457b"></use><use xlink:href="#SvgjsG1555" transform="translate(224.4, 280.5) scale(1.7)" fill="#0f457b"></use><use xlink:href="#SvgjsG1549" transform="translate(224.4, 336.6) scale(1.7)" fill="#0f457b"></use><use xlink:href="#SvgjsG1555" transform="translate(224.4, 392.7) scale(1.7)" fill="#0f457b"></use><use xlink:href="#SvgjsG1554" transform="translate(224.4, 448.8) scale(1.7)" fill="#0f457b"></use><use xlink:href="#SvgjsG1548" transform="translate(224.4, 504.90000000000003) scale(1.7)" fill="#0f457b"></use><use xlink:href="#SvgjsG1543" transform="translate(280.5, 0) scale(1.7)" fill="#0f457b"></use><use xlink:href="#SvgjsG1556" transform="translate(280.5, 56.1) scale(1.7)" fill="#0f457b"></use><use xlink:href="#SvgjsG1545" transform="translate(280.5, 112.2) scale(1.7)" fill="#0f457b"></use><use xlink:href="#SvgjsG1551" transform="translate(280.5, 168.3) scale(1.7)" fill="#0f457b"></use><use xlink:href="#SvgjsG1550" transform="translate(280.5, 224.4) scale(1.7)" fill="#0f457b"></use><use xlink:href="#SvgjsG1546" transform="translate(280.5, 280.5) scale(1.7)" fill="#0f457b"></use><use xlink:href="#SvgjsG1556" transform="translate(280.5, 336.6) scale(1.7)" fill="#0f457b"></use><use xlink:href="#SvgjsG1554" transform="translate(280.5, 392.7) scale(1.7)" fill="#0f457b"></use><use xlink:href="#SvgjsG1550" transform="translate(280.5, 448.8) scale(1.7)" fill="#0f457b"></use><use xlink:href="#SvgjsG1555" transform="translate(280.5, 504.90000000000003) scale(1.7)" fill="#0f457b"></use><use xlink:href="#SvgjsG1557" transform="translate(336.6, 0) scale(1.7)" fill="#0f457b"></use><use xlink:href="#SvgjsG1545" transform="translate(336.6, 56.1) scale(1.7)" fill="#0f457b"></use><use xlink:href="#SvgjsG1554" transform="translate(336.6, 112.2) scale(1.7)" fill="#0f457b"></use><use xlink:href="#SvgjsG1548" transform="translate(336.6, 168.3) scale(1.7)" fill="#0f457b"></use><use xlink:href="#SvgjsG1554" transform="translate(336.6, 224.4) scale(1.7)" fill="#0f457b"></use><use xlink:href="#SvgjsG1552" transform="translate(336.6, 280.5) scale(1.7)" fill="#0f457b"></use><use xlink:href="#SvgjsG1552" transform="translate(336.6, 336.6) scale(1.7)" fill="#0f457b"></use><use xlink:href="#SvgjsG1554" transform="translate(336.6, 392.7) scale(1.7)" fill="#0f457b"></use><use xlink:href="#SvgjsG1546" transform="translate(336.6, 448.8) scale(1.7)" fill="#0f457b"></use><use xlink:href="#SvgjsG1544" transform="translate(336.6, 504.90000000000003) scale(1.7)" fill="#0f457b"></use><use xlink:href="#SvgjsG1556" transform="translate(392.7, 0) scale(1.7)" fill="#0f457b"></use><use xlink:href="#SvgjsG1546" transform="translate(392.7, 56.1) scale(1.7)" fill="#0f457b"></use><use xlink:href="#SvgjsG1554" transform="translate(392.7, 112.2) scale(1.7)" fill="#0f457b"></use><use xlink:href="#SvgjsG1547" transform="translate(392.7, 168.3) scale(1.7)" fill="#0f457b"></use><use xlink:href="#SvgjsG1548" transform="translate(392.7, 224.4) scale(1.7)" fill="#0f457b"></use><use xlink:href="#SvgjsG1550" transform="translate(392.7, 280.5) scale(1.7)" fill="#0f457b"></use><use xlink:href="#SvgjsG1556" transform="translate(392.7, 336.6) scale(1.7)" fill="#0f457b"></use><use xlink:href="#SvgjsG1547" transform="translate(392.7, 392.7) scale(1.7)" fill="#0f457b"></use><use xlink:href="#SvgjsG1551" transform="translate(392.7, 448.8) scale(1.7)" fill="#0f457b"></use><use xlink:href="#SvgjsG1543" transform="translate(392.7, 504.90000000000003) scale(1.7)" fill="#0f457b"></use><use xlink:href="#SvgjsG1557" transform="translate(448.8, 0) scale(1.7)" fill="#0f457b"></use><use xlink:href="#SvgjsG1557" transform="translate(448.8, 56.1) scale(1.7)" fill="#0f457b"></use><use xlink:href="#SvgjsG1552" transform="translate(448.8, 112.2) scale(1.7)" fill="#0f457b"></use><use xlink:href="#SvgjsG1543" transform="translate(448.8, 168.3) scale(1.7)" fill="#0f457b"></use><use xlink:href="#SvgjsG1556" transform="translate(448.8, 224.4) scale(1.7)" fill="#0f457b"></use><use xlink:href="#SvgjsG1545" transform="translate(448.8, 280.5) scale(1.7)" fill="#0f457b"></use><use xlink:href="#SvgjsG1546" transform="translate(448.8, 336.6) scale(1.7)" fill="#0f457b"></use><use xlink:href="#SvgjsG1556" transform="translate(448.8, 392.7) scale(1.7)" fill="#0f457b"></use><use xlink:href="#SvgjsG1557" transform="translate(448.8, 448.8) scale(1.7)" fill="#0f457b"></use><use xlink:href="#SvgjsG1556" transform="translate(448.8, 504.90000000000003) scale(1.7)" fill="#0f457b"></use><use xlink:href="#SvgjsG1556" transform="translate(504.90000000000003, 0) scale(1.7)" fill="#0f457b"></use><use xlink:href="#SvgjsG1547" transform="translate(504.90000000000003, 56.1) scale(1.7)" fill="#0f457b"></use><use xlink:href="#SvgjsG1557" transform="translate(504.90000000000003, 112.2) scale(1.7)" fill="#0f457b"></use><use xlink:href="#SvgjsG1545" transform="translate(504.90000000000003, 168.3) scale(1.7)" fill="#0f457b"></use><use xlink:href="#SvgjsG1557" transform="translate(504.90000000000003, 224.4) scale(1.7)" fill="#0f457b"></use><use xlink:href="#SvgjsG1554" transform="translate(504.90000000000003, 280.5) scale(1.7)" fill="#0f457b"></use><use xlink:href="#SvgjsG1545" transform="translate(504.90000000000003, 336.6) scale(1.7)" fill="#0f457b"></use><use xlink:href="#SvgjsG1545" transform="translate(504.90000000000003, 392.7) scale(1.7)" fill="#0f457b"></use><use xlink:href="#SvgjsG1553" transform="translate(504.90000000000003, 448.8) scale(1.7)" fill="#0f457b"></use><use xlink:href="#SvgjsG1545" transform="translate(504.90000000000003, 504.90000000000003) scale(1.7)" fill="#0f457b"></use></g></defs></svg>